<mxfile host="app.diagrams.net" modified="2023-06-08T02:09:41.577Z" agent="Mozilla/5.0 (Windows NT 10.0; Win64; x64) AppleWebKit/537.36 (KHTML, like Gecko) Chrome/114.0.0.0 Safari/537.36" etag="RVAg7_dMqElc2P3iyudr" version="21.3.7" type="device">
  <diagram name="페이지-1" id="c6U2aofwMbNDEqGLI7J-">
    <mxGraphModel dx="792" dy="689" grid="1" gridSize="10" guides="1" tooltips="1" connect="1" arrows="1" fold="1" page="1" pageScale="1" pageWidth="4681" pageHeight="3300" math="0" shadow="0">
      <root>
        <mxCell id="0" />
        <mxCell id="1" parent="0" />
        <mxCell id="tsxynA4onDeVKwBaUMEg-6" style="edgeStyle=orthogonalEdgeStyle;rounded=0;orthogonalLoop=1;jettySize=auto;html=1;entryX=0;entryY=0.5;entryDx=0;entryDy=0;" edge="1" parent="1" source="tsxynA4onDeVKwBaUMEg-1" target="tsxynA4onDeVKwBaUMEg-4">
          <mxGeometry relative="1" as="geometry" />
        </mxCell>
        <mxCell id="tsxynA4onDeVKwBaUMEg-7" style="edgeStyle=orthogonalEdgeStyle;rounded=0;orthogonalLoop=1;jettySize=auto;html=1;entryX=0;entryY=0.5;entryDx=0;entryDy=0;" edge="1" parent="1" source="tsxynA4onDeVKwBaUMEg-1" target="tsxynA4onDeVKwBaUMEg-2">
          <mxGeometry relative="1" as="geometry" />
        </mxCell>
        <mxCell id="tsxynA4onDeVKwBaUMEg-8" style="edgeStyle=orthogonalEdgeStyle;rounded=0;orthogonalLoop=1;jettySize=auto;html=1;entryX=0;entryY=0.5;entryDx=0;entryDy=0;" edge="1" parent="1" source="tsxynA4onDeVKwBaUMEg-1" target="tsxynA4onDeVKwBaUMEg-5">
          <mxGeometry relative="1" as="geometry" />
        </mxCell>
        <mxCell id="tsxynA4onDeVKwBaUMEg-18" style="edgeStyle=orthogonalEdgeStyle;rounded=0;orthogonalLoop=1;jettySize=auto;html=1;entryX=0;entryY=0.5;entryDx=0;entryDy=0;" edge="1" parent="1" source="tsxynA4onDeVKwBaUMEg-1" target="tsxynA4onDeVKwBaUMEg-17">
          <mxGeometry relative="1" as="geometry" />
        </mxCell>
        <mxCell id="tsxynA4onDeVKwBaUMEg-1" value="사용자" style="shape=umlActor;verticalLabelPosition=bottom;verticalAlign=top;html=1;outlineConnect=0;" vertex="1" parent="1">
          <mxGeometry x="40" y="120" width="80" height="120" as="geometry" />
        </mxCell>
        <mxCell id="tsxynA4onDeVKwBaUMEg-9" style="edgeStyle=orthogonalEdgeStyle;rounded=0;orthogonalLoop=1;jettySize=auto;html=1;entryX=0;entryY=0.5;entryDx=0;entryDy=0;entryPerimeter=0;" edge="1" parent="1" source="tsxynA4onDeVKwBaUMEg-2" target="tsxynA4onDeVKwBaUMEg-3">
          <mxGeometry relative="1" as="geometry">
            <Array as="points">
              <mxPoint x="520" y="110" />
              <mxPoint x="520" y="180" />
            </Array>
          </mxGeometry>
        </mxCell>
        <mxCell id="tsxynA4onDeVKwBaUMEg-2" value="영화 검색" style="ellipse;whiteSpace=wrap;html=1;" vertex="1" parent="1">
          <mxGeometry x="200" y="80" width="120" height="60" as="geometry" />
        </mxCell>
        <mxCell id="tsxynA4onDeVKwBaUMEg-3" value="영화 정보" style="shape=cylinder3;whiteSpace=wrap;html=1;boundedLbl=1;backgroundOutline=1;size=15;" vertex="1" parent="1">
          <mxGeometry x="600" y="120" width="120" height="120" as="geometry" />
        </mxCell>
        <mxCell id="tsxynA4onDeVKwBaUMEg-15" style="edgeStyle=orthogonalEdgeStyle;rounded=0;orthogonalLoop=1;jettySize=auto;html=1;entryX=0;entryY=0.5;entryDx=0;entryDy=0;" edge="1" parent="1" source="tsxynA4onDeVKwBaUMEg-4" target="tsxynA4onDeVKwBaUMEg-13">
          <mxGeometry relative="1" as="geometry" />
        </mxCell>
        <mxCell id="tsxynA4onDeVKwBaUMEg-4" value="평론가 댓글 리스트" style="ellipse;whiteSpace=wrap;html=1;" vertex="1" parent="1">
          <mxGeometry x="200" y="160" width="120" height="60" as="geometry" />
        </mxCell>
        <mxCell id="tsxynA4onDeVKwBaUMEg-11" style="edgeStyle=orthogonalEdgeStyle;rounded=0;orthogonalLoop=1;jettySize=auto;html=1;entryX=0;entryY=0.5;entryDx=0;entryDy=0;entryPerimeter=0;" edge="1" parent="1" source="tsxynA4onDeVKwBaUMEg-5" target="tsxynA4onDeVKwBaUMEg-3">
          <mxGeometry relative="1" as="geometry">
            <Array as="points">
              <mxPoint x="520" y="270" />
              <mxPoint x="520" y="180" />
            </Array>
          </mxGeometry>
        </mxCell>
        <mxCell id="tsxynA4onDeVKwBaUMEg-5" value="비슷한 영화&amp;nbsp;추천" style="ellipse;whiteSpace=wrap;html=1;" vertex="1" parent="1">
          <mxGeometry x="200" y="240" width="120" height="60" as="geometry" />
        </mxCell>
        <mxCell id="tsxynA4onDeVKwBaUMEg-16" style="edgeStyle=orthogonalEdgeStyle;rounded=0;orthogonalLoop=1;jettySize=auto;html=1;entryX=0;entryY=0.5;entryDx=0;entryDy=0;entryPerimeter=0;" edge="1" parent="1" source="tsxynA4onDeVKwBaUMEg-13" target="tsxynA4onDeVKwBaUMEg-3">
          <mxGeometry relative="1" as="geometry">
            <Array as="points">
              <mxPoint x="520" y="190" />
              <mxPoint x="520" y="180" />
            </Array>
          </mxGeometry>
        </mxCell>
        <mxCell id="tsxynA4onDeVKwBaUMEg-13" value="평론가 검색" style="ellipse;whiteSpace=wrap;html=1;" vertex="1" parent="1">
          <mxGeometry x="360" y="160" width="120" height="60" as="geometry" />
        </mxCell>
        <mxCell id="tsxynA4onDeVKwBaUMEg-20" style="edgeStyle=orthogonalEdgeStyle;rounded=0;orthogonalLoop=1;jettySize=auto;html=1;entryX=0;entryY=0.5;entryDx=0;entryDy=0;" edge="1" parent="1" source="tsxynA4onDeVKwBaUMEg-17" target="tsxynA4onDeVKwBaUMEg-19">
          <mxGeometry relative="1" as="geometry" />
        </mxCell>
        <mxCell id="tsxynA4onDeVKwBaUMEg-17" value="이스터에그&amp;nbsp;" style="ellipse;whiteSpace=wrap;html=1;" vertex="1" parent="1">
          <mxGeometry x="200" y="320" width="120" height="60" as="geometry" />
        </mxCell>
        <mxCell id="tsxynA4onDeVKwBaUMEg-21" style="edgeStyle=orthogonalEdgeStyle;rounded=0;orthogonalLoop=1;jettySize=auto;html=1;entryX=0;entryY=0.5;entryDx=0;entryDy=0;entryPerimeter=0;" edge="1" parent="1" source="tsxynA4onDeVKwBaUMEg-19" target="tsxynA4onDeVKwBaUMEg-3">
          <mxGeometry relative="1" as="geometry">
            <Array as="points">
              <mxPoint x="520" y="350" />
              <mxPoint x="520" y="180" />
            </Array>
          </mxGeometry>
        </mxCell>
        <mxCell id="tsxynA4onDeVKwBaUMEg-19" value="글 작성및 수정" style="ellipse;whiteSpace=wrap;html=1;" vertex="1" parent="1">
          <mxGeometry x="360" y="320" width="120" height="60" as="geometry" />
        </mxCell>
      </root>
    </mxGraphModel>
  </diagram>
</mxfile>
